<svg role="img" viewBox="0 0 24 24" xmlns="http://www.w3.org/2000/svg"><title>Amazon CloudFront</title><path d="M12 2C6.48 2 2 6.48 2 12s4.48 10 10 10 10-4.48 10-10S17.52 2 12 2zm0 1.5a8.5 8.5 0 1 1 0 17 8.5 8.5 0 0 1 0-17zm0 1.75a1.25 1.25 0 1 0 0 2.5 1.25 1.25 0 0 0 0-2.5zm-5.5 3a1.25 1.25 0 1 0 0 2.5 1.25 1.25 0 0 0 0-2.5zm11 0a1.25 1.25 0 1 0 0 2.5 1.25 1.25 0 0 0 0-2.5zm-5.5 2.75a1.25 1.25 0 1 0 0 2.5 1.25 1.25 0 0 0 0-2.5zm-4 3a1.25 1.25 0 1 0 0 2.5 1.25 1.25 0 0 0 0-2.5zm8 0a1.25 1.25 0 1 0 0 2.5 1.25 1.25 0 0 0 0-2.5z"/></svg>
